<?xml version="1.0" encoding="utf-8"?>
<!-- Generator: Adobe Illustrator 24.1.0, SVG Export Plug-In . SVG Version: 6.00 Build 0)  -->
<svg version="1.1" id="Layer_1" xmlns="http://www.w3.org/2000/svg" xmlns:xlink="http://www.w3.org/1999/xlink" x="0px" y="0px"
	 viewBox="0 0 100 100" style="enable-background:new 0 0 100 100;" xml:space="preserve">
<style type="text/css">
	.st0{fill:none;stroke:#000000;stroke-linecap:round;stroke-linejoin:round;stroke-miterlimit:10;}
	.st1{fill:none;stroke:#000000;stroke-miterlimit:10;}
	.st2{fill:#FFFFFF;stroke:#000000;stroke-linecap:round;stroke-linejoin:round;stroke-miterlimit:10;}
</style>
<g>
	
		<rect x="22.5" y="14.1" transform="matrix(-1.836970e-16 1 -1 -1.836970e-16 90.5065 0.8386)" class="st2" width="44.7" height="63.1"/>
	<g>
		
			<rect x="42.3" y="-5.6" transform="matrix(6.123234e-17 -1 1 6.123234e-17 18.9226 70.7452)" class="st2" width="5.1" height="63.1"/>
		<circle cx="16.2" cy="25.9" r="0.7"/>
		<circle cx="19.1" cy="25.9" r="0.7"/>
		<circle cx="22" cy="25.9" r="0.7"/>
	</g>
</g>
<g>
	
		<rect x="32.3" y="24.1" transform="matrix(-1.836970e-16 1 -1 -1.836970e-16 110.3115 0.9746)" class="st2" width="44.7" height="63.1"/>
	<g>
		
			<rect x="52.1" y="4.3" transform="matrix(6.123234e-17 -1 1 6.123234e-17 18.7866 90.5502)" class="st2" width="5.1" height="63.1"/>
		<circle cx="26" cy="35.9" r="0.7"/>
		<circle cx="28.9" cy="35.9" r="0.7"/>
		<circle cx="31.8" cy="35.9" r="0.7"/>
	</g>
	<rect x="34.3" y="44.2" class="st2" width="40.7" height="18.9"/>
	<line class="st2" x1="34.3" y1="67.4" x2="75" y2="67.4"/>
	<line class="st2" x1="34.3" y1="70.4" x2="75" y2="70.4"/>
	<line class="st2" x1="42.7" y1="73.3" x2="66.6" y2="73.3"/>
</g>
</svg>
