<?xml version="1.0" encoding="utf-8"?>
<!-- Generator: Adobe Illustrator 24.1.0, SVG Export Plug-In . SVG Version: 6.00 Build 0)  -->
<svg version="1.1" id="Layer_1" xmlns="http://www.w3.org/2000/svg" xmlns:xlink="http://www.w3.org/1999/xlink" x="0px" y="0px"
	 viewBox="0 0 100 100" style="enable-background:new 0 0 100 100;" xml:space="preserve">
<style type="text/css">
	.st0{fill:none;stroke:#000000;stroke-linecap:round;stroke-linejoin:round;stroke-miterlimit:10;}
	.st1{fill:none;stroke:#000000;stroke-miterlimit:10;}
	.st2{fill:#FFFFFF;stroke:#000000;stroke-linecap:round;stroke-linejoin:round;stroke-miterlimit:10;}
</style>
<g>
	<rect x="24.4" y="22.8" class="st2" width="44.7" height="56"/>
	<path d="M29.3,24.7L29.3,24.7c-0.5,0-0.9-0.4-0.9-0.9v-2.1c0-0.5,0.4-0.9,0.9-0.9l0,0c0.5,0,0.9,0.4,0.9,0.9v2.1
		C30.1,24.3,29.7,24.7,29.3,24.7z"/>
	<path class="st2" d="M29.3,33.2c0.1,0,34.9,0,34.9,0"/>
	<path class="st2" d="M29.3,39.2c0.1,0,34.9,0,34.9,0"/>
	<path class="st2" d="M29.3,45.3c0.1,0,34.9,0,34.9,0"/>
	<path class="st2" d="M29.3,51.3c0.1,0,34.9,0,34.9,0"/>
	<path class="st2" d="M29.3,57.4c0.1,0,34.9,0,34.9,0"/>
	<path class="st2" d="M29.3,63.4c0.1,0,34.9,0,34.9,0"/>
	<path class="st2" d="M29.3,69.5c0,0,11.3,0,11.3,0"/>
	<path d="M32.8,24.7L32.8,24.7c-0.5,0-0.9-0.4-0.9-0.9v-2.1c0-0.5,0.4-0.9,0.9-0.9h0c0.5,0,0.9,0.4,0.9,0.9v2.1
		C33.6,24.3,33.2,24.7,32.8,24.7z"/>
	<path d="M36.2,24.7L36.2,24.7c-0.5,0-0.9-0.4-0.9-0.9v-2.1c0-0.5,0.4-0.9,0.9-0.9h0c0.5,0,0.9,0.4,0.9,0.9v2.1
		C37.1,24.3,36.7,24.7,36.2,24.7z"/>
	<path d="M39.7,24.7L39.7,24.7c-0.5,0-0.9-0.4-0.9-0.9v-2.1c0-0.5,0.4-0.9,0.9-0.9h0c0.5,0,0.9,0.4,0.9,0.9v2.1
		C40.6,24.3,40.2,24.7,39.7,24.7z"/>
	<path d="M43.2,24.7L43.2,24.7c-0.5,0-0.9-0.4-0.9-0.9v-2.1c0-0.5,0.4-0.9,0.9-0.9h0c0.5,0,0.9,0.4,0.9,0.9v2.1
		C44.1,24.3,43.7,24.7,43.2,24.7z"/>
	<path d="M46.7,24.7L46.7,24.7c-0.5,0-0.9-0.4-0.9-0.9v-2.1c0-0.5,0.4-0.9,0.9-0.9h0c0.5,0,0.9,0.4,0.9,0.9v2.1
		C47.5,24.3,47.2,24.7,46.7,24.7z"/>
	<path d="M50.2,24.7L50.2,24.7c-0.5,0-0.9-0.4-0.9-0.9v-2.1c0-0.5,0.4-0.9,0.9-0.9h0c0.5,0,0.9,0.4,0.9,0.9v2.1
		C51,24.3,50.7,24.7,50.2,24.7z"/>
	<path d="M53.7,24.7L53.7,24.7c-0.5,0-0.9-0.4-0.9-0.9v-2.1c0-0.5,0.4-0.9,0.9-0.9h0c0.5,0,0.9,0.4,0.9,0.9v2.1
		C54.5,24.3,54.1,24.7,53.7,24.7z"/>
	<path d="M57.2,24.7L57.2,24.7c-0.5,0-0.9-0.4-0.9-0.9v-2.1c0-0.5,0.4-0.9,0.9-0.9l0,0c0.5,0,0.9,0.4,0.9,0.9v2.1
		C58,24.3,57.6,24.7,57.2,24.7z"/>
	<path d="M60.6,24.7L60.6,24.7c-0.5,0-0.9-0.4-0.9-0.9v-2.1c0-0.5,0.4-0.9,0.9-0.9l0,0c0.5,0,0.9,0.4,0.9,0.9v2.1
		C61.5,24.3,61.1,24.7,60.6,24.7z"/>
	<path d="M64.1,24.7L64.1,24.7c-0.5,0-0.9-0.4-0.9-0.9v-2.1c0-0.5,0.4-0.9,0.9-0.9l0,0c0.5,0,0.9,0.4,0.9,0.9v2.1
		C65,24.3,64.6,24.7,64.1,24.7z"/>
</g>
<g>
	<path class="st2" d="M82.2,33.6L80,35.7l-5.6-5.6l2.2-2.2c1.2-1.2,3.1-1.2,4.2,0l1.3,1.3C83.4,30.5,83.4,32.4,82.2,33.6z"/>
	
		<rect x="74.2" y="28.8" transform="matrix(0.7071 -0.7071 0.7071 0.7071 -1.8288 63.6519)" class="st2" width="3.4" height="10.4"/>
	<path class="st2" d="M43.2,61.4c0.5-0.5,1.4-0.5,1.9,0c0.4,0.4,0.5,1.1,0.2,1.6c0.5-0.3,1.2-0.3,1.6,0.2c0.5,0.5,0.5,1.4,0,1.9
		c0.5-0.5,1.4-0.5,1.9,0s0.5,1.4,0,1.9l28.8-28.8L72,32.6L43.2,61.4z"/>
	<path class="st2" d="M48.8,67c0.5-0.5,0.5-1.4,0-1.9s-1.4-0.5-1.9,0c0.5-0.5,0.5-1.4,0-1.9c-0.4-0.4-1.1-0.5-1.6-0.2
		c0.3-0.5,0.3-1.2-0.2-1.6c-0.5-0.5-1.4-0.5-1.9,0l-2.5,8.1L48.8,67z"/>
	<line class="st2" x1="49.2" y1="59.1" x2="67.8" y2="40.5"/>
	<line class="st2" x1="51.1" y1="61" x2="69.7" y2="42.3"/>
</g>
</svg>
