<?xml version="1.0" encoding="utf-8"?>
<!-- Generator: Adobe Illustrator 24.1.0, SVG Export Plug-In . SVG Version: 6.00 Build 0)  -->
<svg version="1.1" id="Layer_1" xmlns="http://www.w3.org/2000/svg" xmlns:xlink="http://www.w3.org/1999/xlink" x="0px" y="0px"
	 viewBox="0 0 100 100" style="enable-background:new 0 0 100 100;" xml:space="preserve">
<style type="text/css">
	.st0{fill:none;stroke:#000000;stroke-linecap:round;stroke-linejoin:round;stroke-miterlimit:10;}
	.st1{fill:none;stroke:#000000;stroke-miterlimit:10;}
	.st2{fill:#FFFFFF;stroke:#000000;stroke-linecap:round;stroke-linejoin:round;stroke-miterlimit:10;}
</style>
<rect x="34" y="29.6" transform="matrix(-1.836970e-16 1 -1 -1.836970e-16 111.9876 10.2404)" class="st2" width="33.7" height="63.1"/>
<circle class="st2" cx="49.5" cy="61.1" r="8.9"/>
<polygon class="st2" points="54.9,61.1 46.6,66.6 46.6,55.7 "/>
<g>
	
		<rect x="46.6" y="8.5" transform="matrix(-1.836970e-16 1 -1 -1.836970e-16 90.8894 -10.8579)" class="st2" width="8.5" height="63.1"/>
	<line class="st2" x1="25.2" y1="35.8" x2="33.6" y2="44.2"/>
	<line class="st2" x1="39.5" y1="35.8" x2="47.9" y2="44.2"/>
	<line class="st2" x1="53.8" y1="35.8" x2="62.2" y2="44.2"/>
	<line class="st2" x1="68.1" y1="35.8" x2="76.5" y2="44.2"/>
</g>
<g>
	
		<rect x="46.6" y="0" transform="matrix(-9.677148e-05 -1 1 -9.677148e-05 19.3372 82.4172)" class="st2" width="8.5" height="63.1"/>
	<line class="st2" x1="25.2" y1="35.8" x2="33.6" y2="27.4"/>
	<line class="st2" x1="39.5" y1="35.8" x2="47.9" y2="27.4"/>
	<line class="st2" x1="53.8" y1="35.8" x2="62.2" y2="27.4"/>
	<line class="st2" x1="68.1" y1="35.8" x2="76.5" y2="27.4"/>
</g>
</svg>
